M48
INCH,TZ
T01C0.020
T02C0.030
%
T01
X005200Y000800
X005200Y002800
X002550Y002000
X002500Y004750
X006100Y001600
X004800Y004300
X002850Y005100
X002550Y002700
X009500Y005350
X002500Y003900
X002850Y004300
X002500Y005450
X005850Y004500
X010050Y000600
X009900Y004600
X009950Y003900
X010550Y002850
X002700Y003200
X012050Y001450
X011950Y004550
X011900Y005400
X012750Y005700
T02
X006750Y004100
X007750Y004100
X006750Y001800
X007750Y001800
X007750Y002950
X006750Y002950
X007600Y000600
X006600Y000600
X007900Y005300
X006900Y005300
X005900Y005300
X004900Y005300
M30
