G04 Title: (unknown), Fabrication Drawing *
G04 Creator: pcb-bin 1.99p *
G04 CreationDate: Tue Aug 24 15:19:08 2004 UTC *
G04 For: marek *
G04 Format: Gerber/RS-274X *
G04 PCB-Dimensions: 145000 59000 *
G04 PCB-Coordinate-Origin: lower left *
%MOIN*%
%FSLAX24Y24*%
%IPPOS*%
%ADD11C,0.0150*%
%ADD12C,0.0600*%
%ADD13C,0.0800*%
%ADD14R,0.0600X0.0600*%
%ADD15R,0.0800X0.0800*%
%ADD16C,0.0080*%
%ADD17C,0.0660*%
%ADD18C,0.0100*%
%ADD19C,0.0200*%
%ADD20C,0.0500*%
%ADD21C,0.0260*%
%ADD22R,0.0200X0.0200*%
%ADD23R,0.0500X0.0500*%
%ADD24R,0.0260X0.0260*%
%ADD25R,0.0360X0.0360*%
%ADD26R,0.0560X0.0560*%
%ADD27R,0.0420X0.0420*%
%ADD28R,0.0480X0.0480*%
%ADD29R,0.0680X0.0680*%
%ADD30R,0.0540X0.0540*%
%ADD31C,0.0400*%
%LNGROUP_1*%
%LPD*%
G01X0Y0D02*
G54D16*X6750Y4260D02*Y3940D01*
X6590Y4100D02*X6910D01*
X7750Y4260D02*Y3940D01*
X7590Y4100D02*X7910D01*
X6750Y1960D02*Y1640D01*
X6590Y1800D02*X6910D01*
X7750Y1960D02*Y1640D01*
X7590Y1800D02*X7910D01*
X7750Y3110D02*Y2790D01*
X7590Y2950D02*X7910D01*
X6750Y3110D02*Y2790D01*
X6590Y2950D02*X6910D01*
X7600Y760D02*Y440D01*
X7440Y600D02*X7760D01*
X6600Y760D02*Y440D01*
X6440Y600D02*X6760D01*
X7900Y5460D02*Y5140D01*
X7740Y5300D02*X8060D01*
X6900Y5460D02*Y5140D01*
X6740Y5300D02*X7060D01*
X5900Y5460D02*Y5140D01*
X5740Y5300D02*X6060D01*
X4900Y5460D02*Y5140D01*
X4740Y5300D02*X5060D01*
X1500Y7185D02*Y6865D01*
X1340Y7025D02*X1660D01*
G04 Text: YES *
X13500Y7400D02*Y7325D01*
X13650Y7175D01*
X13800Y7325D01*
Y7400D02*Y7325D01*
X13650Y7175D02*Y6800D01*
X13980Y7100D02*X14205D01*
X13980Y6800D02*X14280D01*
X13980Y7400D02*Y6800D01*
Y7400D02*X14280D01*
X14760D02*X14835Y7325D01*
X14535Y7400D02*X14760D01*
X14460Y7325D02*X14535Y7400D01*
X14460Y7325D02*Y7175D01*
X14535Y7100D01*
X14760D01*
X14835Y7025D01*
Y6875D01*
X14760Y6800D02*X14835Y6875D01*
X14535Y6800D02*X14760D01*
X14460Y6875D02*X14535Y6800D01*
X13500Y6474D02*X15015D01*
G04 Text: 12 *
X9875Y6800D02*X10025D01*
X9950Y7400D02*Y6800D01*
X9800Y7250D02*X9950Y7400D01*
X10205Y7325D02*X10280Y7400D01*
X10505D01*
X10580Y7325D01*
Y7175D01*
X10205Y6800D02*X10580Y7175D01*
X10205Y6800D02*X10580D01*
X9800Y6474D02*X10760D01*
G04 Text: 0.030 *
X4500Y6875D02*X4575Y6800D01*
X4500Y7325D02*Y6875D01*
Y7325D02*X4575Y7400D01*
X4725D01*
X4800Y7325D01*
Y6875D01*
X4725Y6800D02*X4800Y6875D01*
X4575Y6800D02*X4725D01*
X4500Y6950D02*X4800Y7250D01*
X4980Y6800D02*X5055D01*
X5235Y6875D02*X5310Y6800D01*
X5235Y7325D02*Y6875D01*
Y7325D02*X5310Y7400D01*
X5460D01*
X5535Y7325D01*
Y6875D01*
X5460Y6800D02*X5535Y6875D01*
X5310Y6800D02*X5460D01*
X5235Y6950D02*X5535Y7250D01*
X5715Y7325D02*X5790Y7400D01*
X5940D01*
X6015Y7325D01*
Y6875D01*
X5940Y6800D02*X6015Y6875D01*
X5790Y6800D02*X5940D01*
X5715Y6875D02*X5790Y6800D01*
Y7100D02*X6015D01*
X6195Y6875D02*X6270Y6800D01*
X6195Y7325D02*Y6875D01*
Y7325D02*X6270Y7400D01*
X6420D01*
X6495Y7325D01*
Y6875D01*
X6420Y6800D02*X6495Y6875D01*
X6270Y6800D02*X6420D01*
X6195Y6950D02*X6495Y7250D01*
X4500Y6474D02*X6675D01*
X5200Y800D02*Y640D01*
Y800D02*X5338Y880D01*
X5200Y800D02*X5061Y880D01*
X5200Y2800D02*Y2640D01*
Y2800D02*X5338Y2880D01*
X5200Y2800D02*X5061Y2880D01*
X2550Y2000D02*Y1840D01*
Y2000D02*X2688Y2080D01*
X2550Y2000D02*X2411Y2080D01*
X2500Y4750D02*Y4590D01*
Y4750D02*X2638Y4830D01*
X2500Y4750D02*X2361Y4830D01*
X6100Y1600D02*Y1440D01*
Y1600D02*X6238Y1680D01*
X6100Y1600D02*X5961Y1680D01*
X4800Y4300D02*Y4140D01*
Y4300D02*X4938Y4380D01*
X4800Y4300D02*X4661Y4380D01*
X2850Y5100D02*Y4940D01*
Y5100D02*X2988Y5180D01*
X2850Y5100D02*X2711Y5180D01*
X2550Y2700D02*Y2540D01*
Y2700D02*X2688Y2780D01*
X2550Y2700D02*X2411Y2780D01*
X9500Y5350D02*Y5190D01*
Y5350D02*X9638Y5430D01*
X9500Y5350D02*X9361Y5430D01*
X2500Y3900D02*Y3740D01*
Y3900D02*X2638Y3980D01*
X2500Y3900D02*X2361Y3980D01*
X2850Y4300D02*Y4140D01*
Y4300D02*X2988Y4380D01*
X2850Y4300D02*X2711Y4380D01*
X2500Y5450D02*Y5290D01*
Y5450D02*X2638Y5530D01*
X2500Y5450D02*X2361Y5530D01*
X5850Y4500D02*Y4340D01*
Y4500D02*X5988Y4580D01*
X5850Y4500D02*X5711Y4580D01*
X10050Y600D02*Y440D01*
Y600D02*X10188Y680D01*
X10050Y600D02*X9911Y680D01*
X9900Y4600D02*Y4440D01*
Y4600D02*X10038Y4680D01*
X9900Y4600D02*X9761Y4680D01*
X9950Y3900D02*Y3740D01*
Y3900D02*X10088Y3980D01*
X9950Y3900D02*X9811Y3980D01*
X10550Y2850D02*Y2690D01*
Y2850D02*X10688Y2930D01*
X10550Y2850D02*X10411Y2930D01*
X2700Y3200D02*Y3040D01*
Y3200D02*X2838Y3280D01*
X2700Y3200D02*X2561Y3280D01*
X12050Y1450D02*Y1290D01*
Y1450D02*X12188Y1530D01*
X12050Y1450D02*X11911Y1530D01*
X11950Y4550D02*Y4390D01*
Y4550D02*X12088Y4630D01*
X11950Y4550D02*X11811Y4630D01*
X11900Y5400D02*Y5240D01*
Y5400D02*X12038Y5480D01*
X11900Y5400D02*X11761Y5480D01*
X12750Y5700D02*Y5540D01*
Y5700D02*X12888Y5780D01*
X12750Y5700D02*X12611Y5780D01*
X1500Y8525D02*Y8365D01*
Y8525D02*X1638Y8605D01*
X1500Y8525D02*X1361Y8605D01*
G04 Text: YES *
X13500Y8900D02*Y8825D01*
X13650Y8675D01*
X13800Y8825D01*
Y8900D02*Y8825D01*
X13650Y8675D02*Y8300D01*
X13980Y8600D02*X14205D01*
X13980Y8300D02*X14280D01*
X13980Y8900D02*Y8300D01*
Y8900D02*X14280D01*
X14760D02*X14835Y8825D01*
X14535Y8900D02*X14760D01*
X14460Y8825D02*X14535Y8900D01*
X14460Y8825D02*Y8675D01*
X14535Y8600D01*
X14760D01*
X14835Y8525D01*
Y8375D01*
X14760Y8300D02*X14835Y8375D01*
X14535Y8300D02*X14760D01*
X14460Y8375D02*X14535Y8300D01*
X13500Y7974D02*X15015D01*
G04 Text: 22 *
X9800Y8825D02*X9875Y8900D01*
X10100D01*
X10175Y8825D01*
Y8675D01*
X9800Y8300D02*X10175Y8675D01*
X9800Y8300D02*X10175D01*
X10355Y8825D02*X10430Y8900D01*
X10655D01*
X10730Y8825D01*
Y8675D01*
X10355Y8300D02*X10730Y8675D01*
X10355Y8300D02*X10730D01*
X9800Y7974D02*X10910D01*
G04 Text: 0.020 *
X4500Y8375D02*X4575Y8300D01*
X4500Y8825D02*Y8375D01*
Y8825D02*X4575Y8900D01*
X4725D01*
X4800Y8825D01*
Y8375D01*
X4725Y8300D02*X4800Y8375D01*
X4575Y8300D02*X4725D01*
X4500Y8450D02*X4800Y8750D01*
X4980Y8300D02*X5055D01*
X5235Y8375D02*X5310Y8300D01*
X5235Y8825D02*Y8375D01*
Y8825D02*X5310Y8900D01*
X5460D01*
X5535Y8825D01*
Y8375D01*
X5460Y8300D02*X5535Y8375D01*
X5310Y8300D02*X5460D01*
X5235Y8450D02*X5535Y8750D01*
X5715Y8825D02*X5790Y8900D01*
X6015D01*
X6090Y8825D01*
Y8675D01*
X5715Y8300D02*X6090Y8675D01*
X5715Y8300D02*X6090D01*
X6270Y8375D02*X6345Y8300D01*
X6270Y8825D02*Y8375D01*
Y8825D02*X6345Y8900D01*
X6495D01*
X6570Y8825D01*
Y8375D01*
X6495Y8300D02*X6570Y8375D01*
X6345Y8300D02*X6495D01*
X6270Y8450D02*X6570Y8750D01*
X4500Y7974D02*X6750D01*
G04 Text: Symbol *
X300Y10400D02*X375Y10325D01*
X75Y10400D02*X300D01*
X0Y10325D02*X75Y10400D01*
X0Y10325D02*Y10175D01*
X75Y10100D01*
X300D01*
X375Y10025D01*
Y9875D01*
X300Y9800D02*X375Y9875D01*
X75Y9800D02*X300D01*
X0Y9875D02*X75Y9800D01*
X555Y10100D02*Y9875D01*
X630Y9800D01*
X855Y10100D02*Y9650D01*
X780Y9575D02*X855Y9650D01*
X630Y9575D02*X780D01*
X555Y9650D02*X630Y9575D01*
Y9800D02*X780D01*
X855Y9875D01*
X1110Y10025D02*Y9800D01*
Y10025D02*X1185Y10100D01*
X1260D01*
X1335Y10025D01*
Y9800D01*
Y10025D02*X1410Y10100D01*
X1485D01*
X1560Y10025D01*
Y9800D01*
X1035Y10100D02*X1110Y10025D01*
X1740Y10400D02*Y9800D01*
Y9875D02*X1815Y9800D01*
X1965D01*
X2040Y9875D01*
Y10025D02*Y9875D01*
X1965Y10100D02*X2040Y10025D01*
X1815Y10100D02*X1965D01*
X1740Y10025D02*X1815Y10100D01*
X2220Y10025D02*Y9875D01*
Y10025D02*X2295Y10100D01*
X2445D01*
X2520Y10025D01*
Y9875D01*
X2445Y9800D02*X2520Y9875D01*
X2295Y9800D02*X2445D01*
X2220Y9875D02*X2295Y9800D01*
X2700Y10400D02*Y9875D01*
X2775Y9800D01*
G04 Text: Diam. (Inch) *
X4175Y10400D02*Y9800D01*
X4400Y10400D02*X4475Y10325D01*
Y9875D01*
X4400Y9800D02*X4475Y9875D01*
X4100Y9800D02*X4400D01*
X4100Y10400D02*X4400D01*
X4655Y10250D02*Y10175D01*
Y10025D02*Y9800D01*
X5030Y10100D02*X5105Y10025D01*
X4880Y10100D02*X5030D01*
X4805Y10025D02*X4880Y10100D01*
X4805Y10025D02*Y9875D01*
X4880Y9800D01*
X5105Y10100D02*Y9875D01*
X5180Y9800D01*
X4880D02*X5030D01*
X5105Y9875D01*
X5435Y10025D02*Y9800D01*
Y10025D02*X5510Y10100D01*
X5585D01*
X5660Y10025D01*
Y9800D01*
Y10025D02*X5735Y10100D01*
X5810D01*
X5885Y10025D01*
Y9800D01*
X5360Y10100D02*X5435Y10025D01*
X6065Y9800D02*X6140D01*
X6590Y9875D02*X6665Y9800D01*
X6590Y10325D02*X6665Y10400D01*
X6590Y10325D02*Y9875D01*
X6845Y10400D02*X6995D01*
X6920D02*Y9800D01*
X6845D02*X6995D01*
X7251Y10025D02*Y9800D01*
Y10025D02*X7326Y10100D01*
X7401D01*
X7476Y10025D01*
Y9800D01*
X7176Y10100D02*X7251Y10025D01*
X7731Y10100D02*X7956D01*
X7656Y10025D02*X7731Y10100D01*
X7656Y10025D02*Y9875D01*
X7731Y9800D01*
X7956D01*
X8136Y10400D02*Y9800D01*
Y10025D02*X8211Y10100D01*
X8361D01*
X8436Y10025D01*
Y9800D01*
X8616Y10400D02*X8691Y10325D01*
Y9875D01*
X8616Y9800D02*X8691Y9875D01*
G04 Text: Count *
X9575Y9800D02*X9800D01*
X9500Y9875D02*X9575Y9800D01*
X9500Y10325D02*Y9875D01*
Y10325D02*X9575Y10400D01*
X9800D01*
X9980Y10025D02*Y9875D01*
Y10025D02*X10055Y10100D01*
X10205D01*
X10280Y10025D01*
Y9875D01*
X10205Y9800D02*X10280Y9875D01*
X10055Y9800D02*X10205D01*
X9980Y9875D02*X10055Y9800D01*
X10460Y10100D02*Y9875D01*
X10535Y9800D01*
X10685D01*
X10760Y9875D01*
Y10100D02*Y9875D01*
X11015Y10025D02*Y9800D01*
Y10025D02*X11090Y10100D01*
X11165D01*
X11240Y10025D01*
Y9800D01*
X10940Y10100D02*X11015Y10025D01*
X11495Y10400D02*Y9875D01*
X11570Y9800D01*
X11420Y10175D02*X11570D01*
G04 Text: Plated? *
X13075Y10400D02*Y9800D01*
X13000Y10400D02*X13300D01*
X13375Y10325D01*
Y10175D01*
X13300Y10100D02*X13375Y10175D01*
X13075Y10100D02*X13300D01*
X13555Y10400D02*Y9875D01*
X13630Y9800D01*
X14005Y10100D02*X14080Y10025D01*
X13855Y10100D02*X14005D01*
X13780Y10025D02*X13855Y10100D01*
X13780Y10025D02*Y9875D01*
X13855Y9800D01*
X14080Y10100D02*Y9875D01*
X14155Y9800D01*
X13855D02*X14005D01*
X14080Y9875D01*
X14410Y10400D02*Y9875D01*
X14485Y9800D01*
X14335Y10175D02*X14485D01*
X14710Y9800D02*X14935D01*
X14635Y9875D02*X14710Y9800D01*
X14635Y10025D02*Y9875D01*
Y10025D02*X14710Y10100D01*
X14860D01*
X14935Y10025D01*
X14635Y9950D02*X14935D01*
Y10025D02*Y9950D01*
X15415Y10400D02*Y9800D01*
X15340D02*X15415Y9875D01*
X15190Y9800D02*X15340D01*
X15115Y9875D02*X15190Y9800D01*
X15115Y10025D02*Y9875D01*
Y10025D02*X15190Y10100D01*
X15340D01*
X15415Y10025D01*
X15745Y10100D02*Y10025D01*
Y9875D02*Y9800D01*
X15595Y10325D02*Y10250D01*
Y10325D02*X15670Y10400D01*
X15820D01*
X15895Y10325D01*
Y10250D01*
X15745Y10100D02*X15895Y10250D01*
G04 Text: There are 2 different drill sizes used in this layout, 34 holes total *
X0Y11900D02*X300D01*
X150D02*Y11300D01*
X480Y11900D02*Y11300D01*
Y11525D02*X555Y11600D01*
X705D01*
X780Y11525D01*
Y11300D01*
X1035D02*X1260D01*
X960Y11375D02*X1035Y11300D01*
X960Y11525D02*Y11375D01*
Y11525D02*X1035Y11600D01*
X1185D01*
X1260Y11525D01*
X960Y11450D02*X1260D01*
Y11525D02*Y11450D01*
X1515Y11525D02*Y11300D01*
Y11525D02*X1590Y11600D01*
X1740D01*
X1440D02*X1515Y11525D01*
X1995Y11300D02*X2220D01*
X1920Y11375D02*X1995Y11300D01*
X1920Y11525D02*Y11375D01*
Y11525D02*X1995Y11600D01*
X2145D01*
X2220Y11525D01*
X1920Y11450D02*X2220D01*
Y11525D02*Y11450D01*
X2895Y11600D02*X2970Y11525D01*
X2745Y11600D02*X2895D01*
X2670Y11525D02*X2745Y11600D01*
X2670Y11525D02*Y11375D01*
X2745Y11300D01*
X2970Y11600D02*Y11375D01*
X3045Y11300D01*
X2745D02*X2895D01*
X2970Y11375D01*
X3300Y11525D02*Y11300D01*
Y11525D02*X3375Y11600D01*
X3525D01*
X3225D02*X3300Y11525D01*
X3781Y11300D02*X4006D01*
X3706Y11375D02*X3781Y11300D01*
X3706Y11525D02*Y11375D01*
Y11525D02*X3781Y11600D01*
X3931D01*
X4006Y11525D01*
X3706Y11450D02*X4006D01*
Y11525D02*Y11450D01*
X4456Y11825D02*X4531Y11900D01*
X4756D01*
X4831Y11825D01*
Y11675D01*
X4456Y11300D02*X4831Y11675D01*
X4456Y11300D02*X4831D01*
X5581Y11900D02*Y11300D01*
X5506D02*X5581Y11375D01*
X5356Y11300D02*X5506D01*
X5281Y11375D02*X5356Y11300D01*
X5281Y11525D02*Y11375D01*
Y11525D02*X5356Y11600D01*
X5506D01*
X5581Y11525D01*
X5761Y11750D02*Y11675D01*
Y11525D02*Y11300D01*
X5986Y11825D02*Y11300D01*
Y11825D02*X6061Y11900D01*
X6136D01*
X5911Y11600D02*X6061D01*
X6361Y11825D02*Y11300D01*
Y11825D02*X6436Y11900D01*
X6511D01*
X6286Y11600D02*X6436D01*
X6736Y11300D02*X6961D01*
X6661Y11375D02*X6736Y11300D01*
X6661Y11525D02*Y11375D01*
Y11525D02*X6736Y11600D01*
X6886D01*
X6961Y11525D01*
X6661Y11450D02*X6961D01*
Y11525D02*Y11450D01*
X7217Y11525D02*Y11300D01*
Y11525D02*X7292Y11600D01*
X7442D01*
X7142D02*X7217Y11525D01*
X7697Y11300D02*X7922D01*
X7622Y11375D02*X7697Y11300D01*
X7622Y11525D02*Y11375D01*
Y11525D02*X7697Y11600D01*
X7847D01*
X7922Y11525D01*
X7622Y11450D02*X7922D01*
Y11525D02*Y11450D01*
X8177Y11525D02*Y11300D01*
Y11525D02*X8252Y11600D01*
X8327D01*
X8402Y11525D01*
Y11300D01*
X8102Y11600D02*X8177Y11525D01*
X8657Y11900D02*Y11375D01*
X8732Y11300D01*
X8582Y11675D02*X8732D01*
X9452Y11900D02*Y11300D01*
X9377D02*X9452Y11375D01*
X9227Y11300D02*X9377D01*
X9152Y11375D02*X9227Y11300D01*
X9152Y11525D02*Y11375D01*
Y11525D02*X9227Y11600D01*
X9377D01*
X9452Y11525D01*
X9707D02*Y11300D01*
Y11525D02*X9782Y11600D01*
X9932D01*
X9632D02*X9707Y11525D01*
X10113Y11750D02*Y11675D01*
Y11525D02*Y11300D01*
X10263Y11900D02*Y11375D01*
X10338Y11300D01*
X10488Y11900D02*Y11375D01*
X10563Y11300D01*
X11058D02*X11283D01*
X11358Y11375D01*
X11283Y11450D02*X11358Y11375D01*
X11058Y11450D02*X11283D01*
X10983Y11525D02*X11058Y11450D01*
X10983Y11525D02*X11058Y11600D01*
X11283D01*
X11358Y11525D01*
X10983Y11375D02*X11058Y11300D01*
X11538Y11750D02*Y11675D01*
Y11525D02*Y11300D01*
X11688Y11600D02*X11988D01*
X11688Y11300D02*X11988Y11600D01*
X11688Y11300D02*X11988D01*
X12243D02*X12468D01*
X12168Y11375D02*X12243Y11300D01*
X12168Y11525D02*Y11375D01*
Y11525D02*X12243Y11600D01*
X12393D01*
X12468Y11525D01*
X12168Y11450D02*X12468D01*
Y11525D02*Y11450D01*
X12724Y11300D02*X12949D01*
X13024Y11375D01*
X12949Y11450D02*X13024Y11375D01*
X12724Y11450D02*X12949D01*
X12649Y11525D02*X12724Y11450D01*
X12649Y11525D02*X12724Y11600D01*
X12949D01*
X13024Y11525D01*
X12649Y11375D02*X12724Y11300D01*
X13474Y11600D02*Y11375D01*
X13549Y11300D01*
X13699D01*
X13774Y11375D01*
Y11600D02*Y11375D01*
X14029Y11300D02*X14254D01*
X14329Y11375D01*
X14254Y11450D02*X14329Y11375D01*
X14029Y11450D02*X14254D01*
X13954Y11525D02*X14029Y11450D01*
X13954Y11525D02*X14029Y11600D01*
X14254D01*
X14329Y11525D01*
X13954Y11375D02*X14029Y11300D01*
X14584D02*X14809D01*
X14509Y11375D02*X14584Y11300D01*
X14509Y11525D02*Y11375D01*
Y11525D02*X14584Y11600D01*
X14734D01*
X14809Y11525D01*
X14509Y11450D02*X14809D01*
Y11525D02*Y11450D01*
X15289Y11900D02*Y11300D01*
X15214D02*X15289Y11375D01*
X15064Y11300D02*X15214D01*
X14989Y11375D02*X15064Y11300D01*
X14989Y11525D02*Y11375D01*
Y11525D02*X15064Y11600D01*
X15214D01*
X15289Y11525D01*
X15739Y11750D02*Y11675D01*
Y11525D02*Y11300D01*
X15964Y11525D02*Y11300D01*
Y11525D02*X16039Y11600D01*
X16114D01*
X16189Y11525D01*
Y11300D01*
X15889Y11600D02*X15964Y11525D01*
X16715Y11900D02*Y11375D01*
X16790Y11300D01*
X16640Y11675D02*X16790D01*
X16940Y11900D02*Y11300D01*
Y11525D02*X17015Y11600D01*
X17165D01*
X17240Y11525D01*
Y11300D01*
X17420Y11750D02*Y11675D01*
Y11525D02*Y11300D01*
X17645D02*X17870D01*
X17945Y11375D01*
X17870Y11450D02*X17945Y11375D01*
X17645Y11450D02*X17870D01*
X17570Y11525D02*X17645Y11450D01*
X17570Y11525D02*X17645Y11600D01*
X17870D01*
X17945Y11525D01*
X17570Y11375D02*X17645Y11300D01*
X18395Y11900D02*Y11375D01*
X18470Y11300D01*
X18845Y11600D02*X18920Y11525D01*
X18695Y11600D02*X18845D01*
X18620Y11525D02*X18695Y11600D01*
X18620Y11525D02*Y11375D01*
X18695Y11300D01*
X18920Y11600D02*Y11375D01*
X18995Y11300D01*
X18695D02*X18845D01*
X18920Y11375D01*
X19176Y11600D02*Y11375D01*
X19251Y11300D01*
X19476Y11600D02*Y11150D01*
X19401Y11075D02*X19476Y11150D01*
X19251Y11075D02*X19401D01*
X19176Y11150D02*X19251Y11075D01*
Y11300D02*X19401D01*
X19476Y11375D01*
X19656Y11525D02*Y11375D01*
Y11525D02*X19731Y11600D01*
X19881D01*
X19956Y11525D01*
Y11375D01*
X19881Y11300D02*X19956Y11375D01*
X19731Y11300D02*X19881D01*
X19656Y11375D02*X19731Y11300D01*
X20136Y11600D02*Y11375D01*
X20211Y11300D01*
X20361D01*
X20436Y11375D01*
Y11600D02*Y11375D01*
X20691Y11900D02*Y11375D01*
X20766Y11300D01*
X20616Y11675D02*X20766D01*
X20916Y11150D02*X21066Y11300D01*
X21516Y11825D02*X21591Y11900D01*
X21741D01*
X21816Y11825D01*
Y11375D01*
X21741Y11300D02*X21816Y11375D01*
X21591Y11300D02*X21741D01*
X21516Y11375D02*X21591Y11300D01*
Y11600D02*X21816D01*
X21996D02*X22296Y11900D01*
X21996Y11600D02*X22371D01*
X22296Y11900D02*Y11300D01*
X22822Y11900D02*Y11300D01*
Y11525D02*X22897Y11600D01*
X23047D01*
X23122Y11525D01*
Y11300D01*
X23302Y11525D02*Y11375D01*
Y11525D02*X23377Y11600D01*
X23527D01*
X23602Y11525D01*
Y11375D01*
X23527Y11300D02*X23602Y11375D01*
X23377Y11300D02*X23527D01*
X23302Y11375D02*X23377Y11300D01*
X23782Y11900D02*Y11375D01*
X23857Y11300D01*
X24082D02*X24307D01*
X24007Y11375D02*X24082Y11300D01*
X24007Y11525D02*Y11375D01*
Y11525D02*X24082Y11600D01*
X24232D01*
X24307Y11525D01*
X24007Y11450D02*X24307D01*
Y11525D02*Y11450D01*
X24562Y11300D02*X24787D01*
X24862Y11375D01*
X24787Y11450D02*X24862Y11375D01*
X24562Y11450D02*X24787D01*
X24487Y11525D02*X24562Y11450D01*
X24487Y11525D02*X24562Y11600D01*
X24787D01*
X24862Y11525D01*
X24487Y11375D02*X24562Y11300D01*
X25387Y11900D02*Y11375D01*
X25462Y11300D01*
X25312Y11675D02*X25462D01*
X25612Y11525D02*Y11375D01*
Y11525D02*X25687Y11600D01*
X25837D01*
X25912Y11525D01*
Y11375D01*
X25837Y11300D02*X25912Y11375D01*
X25687Y11300D02*X25837D01*
X25612Y11375D02*X25687Y11300D01*
X26168Y11900D02*Y11375D01*
X26243Y11300D01*
X26093Y11675D02*X26243D01*
X26618Y11600D02*X26693Y11525D01*
X26468Y11600D02*X26618D01*
X26393Y11525D02*X26468Y11600D01*
X26393Y11525D02*Y11375D01*
X26468Y11300D01*
X26693Y11600D02*Y11375D01*
X26768Y11300D01*
X26468D02*X26618D01*
X26693Y11375D01*
X26948Y11900D02*Y11375D01*
X27023Y11300D01*
G04 Text: Maximum Dimensions: 1450 mils wide, 590 mils high *
X20000Y7400D02*Y6800D01*
Y7400D02*X20225Y7175D01*
X20450Y7400D01*
Y6800D01*
X20855Y7100D02*X20930Y7025D01*
X20705Y7100D02*X20855D01*
X20630Y7025D02*X20705Y7100D01*
X20630Y7025D02*Y6875D01*
X20705Y6800D01*
X20930Y7100D02*Y6875D01*
X21005Y6800D01*
X20705D02*X20855D01*
X20930Y6875D01*
X21185Y7100D02*X21485Y6800D01*
X21185D02*X21485Y7100D01*
X21665Y7250D02*Y7175D01*
Y7025D02*Y6800D01*
X21890Y7025D02*Y6800D01*
Y7025D02*X21965Y7100D01*
X22040D01*
X22115Y7025D01*
Y6800D01*
Y7025D02*X22190Y7100D01*
X22265D01*
X22340Y7025D01*
Y6800D01*
X21815Y7100D02*X21890Y7025D01*
X22520Y7100D02*Y6875D01*
X22595Y6800D01*
X22745D01*
X22820Y6875D01*
Y7100D02*Y6875D01*
X23075Y7025D02*Y6800D01*
Y7025D02*X23150Y7100D01*
X23225D01*
X23300Y7025D01*
Y6800D01*
Y7025D02*X23375Y7100D01*
X23450D01*
X23525Y7025D01*
Y6800D01*
X23000Y7100D02*X23075Y7025D01*
X24051Y7400D02*Y6800D01*
X24276Y7400D02*X24351Y7325D01*
Y6875D01*
X24276Y6800D02*X24351Y6875D01*
X23976Y6800D02*X24276D01*
X23976Y7400D02*X24276D01*
X24531Y7250D02*Y7175D01*
Y7025D02*Y6800D01*
X24756Y7025D02*Y6800D01*
Y7025D02*X24831Y7100D01*
X24906D01*
X24981Y7025D01*
Y6800D01*
Y7025D02*X25056Y7100D01*
X25131D01*
X25206Y7025D01*
Y6800D01*
X24681Y7100D02*X24756Y7025D01*
X25461Y6800D02*X25686D01*
X25386Y6875D02*X25461Y6800D01*
X25386Y7025D02*Y6875D01*
Y7025D02*X25461Y7100D01*
X25611D01*
X25686Y7025D01*
X25386Y6950D02*X25686D01*
Y7025D02*Y6950D01*
X25941Y7025D02*Y6800D01*
Y7025D02*X26016Y7100D01*
X26091D01*
X26166Y7025D01*
Y6800D01*
X25866Y7100D02*X25941Y7025D01*
X26421Y6800D02*X26646D01*
X26721Y6875D01*
X26646Y6950D02*X26721Y6875D01*
X26421Y6950D02*X26646D01*
X26346Y7025D02*X26421Y6950D01*
X26346Y7025D02*X26421Y7100D01*
X26646D01*
X26721Y7025D01*
X26346Y6875D02*X26421Y6800D01*
X26901Y7250D02*Y7175D01*
Y7025D02*Y6800D01*
X27052Y7025D02*Y6875D01*
Y7025D02*X27127Y7100D01*
X27277D01*
X27352Y7025D01*
Y6875D01*
X27277Y6800D02*X27352Y6875D01*
X27127Y6800D02*X27277D01*
X27052Y6875D02*X27127Y6800D01*
X27607Y7025D02*Y6800D01*
Y7025D02*X27682Y7100D01*
X27757D01*
X27832Y7025D01*
Y6800D01*
X27532Y7100D02*X27607Y7025D01*
X28087Y6800D02*X28312D01*
X28387Y6875D01*
X28312Y6950D02*X28387Y6875D01*
X28087Y6950D02*X28312D01*
X28012Y7025D02*X28087Y6950D01*
X28012Y7025D02*X28087Y7100D01*
X28312D01*
X28387Y7025D01*
X28012Y6875D02*X28087Y6800D01*
X28567Y7175D02*X28642D01*
X28567Y7025D02*X28642D01*
X29167Y6800D02*X29317D01*
X29242Y7400D02*Y6800D01*
X29092Y7250D02*X29242Y7400D01*
X29497Y7100D02*X29797Y7400D01*
X29497Y7100D02*X29872D01*
X29797Y7400D02*Y6800D01*
X30053Y7400D02*X30353D01*
X30053D02*Y7100D01*
X30128Y7175D01*
X30278D01*
X30353Y7100D01*
Y6875D01*
X30278Y6800D02*X30353Y6875D01*
X30128Y6800D02*X30278D01*
X30053Y6875D02*X30128Y6800D01*
X30533Y6875D02*X30608Y6800D01*
X30533Y7325D02*Y6875D01*
Y7325D02*X30608Y7400D01*
X30758D01*
X30833Y7325D01*
Y6875D01*
X30758Y6800D02*X30833Y6875D01*
X30608Y6800D02*X30758D01*
X30533Y6950D02*X30833Y7250D01*
X31358Y7025D02*Y6800D01*
Y7025D02*X31433Y7100D01*
X31508D01*
X31583Y7025D01*
Y6800D01*
Y7025D02*X31658Y7100D01*
X31733D01*
X31808Y7025D01*
Y6800D01*
X31283Y7100D02*X31358Y7025D01*
X31988Y7250D02*Y7175D01*
Y7025D02*Y6800D01*
X32138Y7400D02*Y6875D01*
X32213Y6800D01*
X32438D02*X32663D01*
X32738Y6875D01*
X32663Y6950D02*X32738Y6875D01*
X32438Y6950D02*X32663D01*
X32363Y7025D02*X32438Y6950D01*
X32363Y7025D02*X32438Y7100D01*
X32663D01*
X32738Y7025D01*
X32363Y6875D02*X32438Y6800D01*
X33188Y7100D02*Y6875D01*
X33263Y6800D01*
X33338D01*
X33413Y6875D01*
Y7100D02*Y6875D01*
X33488Y6800D01*
X33563D01*
X33638Y6875D01*
Y7100D02*Y6875D01*
X33819Y7250D02*Y7175D01*
Y7025D02*Y6800D01*
X34269Y7400D02*Y6800D01*
X34194D02*X34269Y6875D01*
X34044Y6800D02*X34194D01*
X33969Y6875D02*X34044Y6800D01*
X33969Y7025D02*Y6875D01*
Y7025D02*X34044Y7100D01*
X34194D01*
X34269Y7025D01*
X34524Y6800D02*X34749D01*
X34449Y6875D02*X34524Y6800D01*
X34449Y7025D02*Y6875D01*
Y7025D02*X34524Y7100D01*
X34674D01*
X34749Y7025D01*
X34449Y6950D02*X34749D01*
Y7025D02*Y6950D01*
X34929Y6650D02*X35079Y6800D01*
X35529Y7400D02*X35829D01*
X35529D02*Y7100D01*
X35604Y7175D01*
X35754D01*
X35829Y7100D01*
Y6875D01*
X35754Y6800D02*X35829Y6875D01*
X35604Y6800D02*X35754D01*
X35529Y6875D02*X35604Y6800D01*
X36009D02*X36309Y7100D01*
Y7325D02*Y7100D01*
X36234Y7400D02*X36309Y7325D01*
X36084Y7400D02*X36234D01*
X36009Y7325D02*X36084Y7400D01*
X36009Y7325D02*Y7175D01*
X36084Y7100D01*
X36309D01*
X36489Y6875D02*X36564Y6800D01*
X36489Y7325D02*Y6875D01*
Y7325D02*X36564Y7400D01*
X36714D01*
X36789Y7325D01*
Y6875D01*
X36714Y6800D02*X36789Y6875D01*
X36564Y6800D02*X36714D01*
X36489Y6950D02*X36789Y7250D01*
X37315Y7025D02*Y6800D01*
Y7025D02*X37390Y7100D01*
X37465D01*
X37540Y7025D01*
Y6800D01*
Y7025D02*X37615Y7100D01*
X37690D01*
X37765Y7025D01*
Y6800D01*
X37240Y7100D02*X37315Y7025D01*
X37945Y7250D02*Y7175D01*
Y7025D02*Y6800D01*
X38095Y7400D02*Y6875D01*
X38170Y6800D01*
X38395D02*X38620D01*
X38695Y6875D01*
X38620Y6950D02*X38695Y6875D01*
X38395Y6950D02*X38620D01*
X38320Y7025D02*X38395Y6950D01*
X38320Y7025D02*X38395Y7100D01*
X38620D01*
X38695Y7025D01*
X38320Y6875D02*X38395Y6800D01*
X39145Y7400D02*Y6800D01*
Y7025D02*X39220Y7100D01*
X39370D01*
X39445Y7025D01*
Y6800D01*
X39625Y7250D02*Y7175D01*
Y7025D02*Y6800D01*
X40001Y7100D02*X40076Y7025D01*
X39851Y7100D02*X40001D01*
X39776Y7025D02*X39851Y7100D01*
X39776Y7025D02*Y6875D01*
X39851Y6800D01*
X40001D01*
X40076Y6875D01*
X39776Y6650D02*X39851Y6575D01*
X40001D01*
X40076Y6650D01*
Y7100D02*Y6650D01*
X40256Y7400D02*Y6800D01*
Y7025D02*X40331Y7100D01*
X40481D01*
X40556Y7025D01*
Y6800D01*
*G04 Outline ***
G54D18*X0Y0D02*X14500Y0D01*
X14500Y0D02*X14500Y5900D01*
X14500Y5900D02*X0Y5900D01*
X0Y5900D02*X0Y0D01*
G04 Text: Board outline is the centerline of this 10 mil rectangle - 0,0 to 1450,590 mils *
G54D16*Y-800D02*X300D01*
X375Y-725D01*
Y-575D02*Y-725D01*
X300Y-500D02*X375Y-575D01*
X75Y-500D02*X300D01*
X75Y-200D02*Y-800D01*
X0Y-200D02*X300D01*
X375Y-275D01*
Y-425D01*
X300Y-500D02*X375Y-425D01*
X555Y-575D02*Y-725D01*
Y-575D02*X630Y-500D01*
X780D01*
X855Y-575D01*
Y-725D01*
X780Y-800D02*X855Y-725D01*
X630Y-800D02*X780D01*
X555Y-725D02*X630Y-800D01*
X1260Y-500D02*X1335Y-575D01*
X1110Y-500D02*X1260D01*
X1035Y-575D02*X1110Y-500D01*
X1035Y-575D02*Y-725D01*
X1110Y-800D01*
X1335Y-500D02*Y-725D01*
X1410Y-800D01*
X1110D02*X1260D01*
X1335Y-725D01*
X1665Y-575D02*Y-800D01*
Y-575D02*X1740Y-500D01*
X1890D01*
X1590D02*X1665Y-575D01*
X2370Y-200D02*Y-800D01*
X2295D02*X2370Y-725D01*
X2145Y-800D02*X2295D01*
X2070Y-725D02*X2145Y-800D01*
X2070Y-575D02*Y-725D01*
Y-575D02*X2145Y-500D01*
X2295D01*
X2370Y-575D01*
X2820D02*Y-725D01*
Y-575D02*X2895Y-500D01*
X3045D01*
X3120Y-575D01*
Y-725D01*
X3045Y-800D02*X3120Y-725D01*
X2895Y-800D02*X3045D01*
X2820Y-725D02*X2895Y-800D01*
X3300Y-500D02*Y-725D01*
X3375Y-800D01*
X3525D01*
X3600Y-725D01*
Y-500D02*Y-725D01*
X3856Y-200D02*Y-725D01*
X3931Y-800D01*
X3781Y-425D02*X3931D01*
X4081Y-200D02*Y-725D01*
X4156Y-800D01*
X4306Y-350D02*Y-425D01*
Y-575D02*Y-800D01*
X4531Y-575D02*Y-800D01*
Y-575D02*X4606Y-500D01*
X4681D01*
X4756Y-575D01*
Y-800D01*
X4456Y-500D02*X4531Y-575D01*
X5011Y-800D02*X5236D01*
X4936Y-725D02*X5011Y-800D01*
X4936Y-575D02*Y-725D01*
Y-575D02*X5011Y-500D01*
X5161D01*
X5236Y-575D01*
X4936Y-650D02*X5236D01*
Y-575D02*Y-650D01*
X5686Y-350D02*Y-425D01*
Y-575D02*Y-800D01*
X5911D02*X6136D01*
X6211Y-725D01*
X6136Y-650D02*X6211Y-725D01*
X5911Y-650D02*X6136D01*
X5836Y-575D02*X5911Y-650D01*
X5836Y-575D02*X5911Y-500D01*
X6136D01*
X6211Y-575D01*
X5836Y-725D02*X5911Y-800D01*
X6737Y-200D02*Y-725D01*
X6812Y-800D01*
X6662Y-425D02*X6812D01*
X6962Y-200D02*Y-800D01*
Y-575D02*X7037Y-500D01*
X7187D01*
X7262Y-575D01*
Y-800D01*
X7517D02*X7742D01*
X7442Y-725D02*X7517Y-800D01*
X7442Y-575D02*Y-725D01*
Y-575D02*X7517Y-500D01*
X7667D01*
X7742Y-575D01*
X7442Y-650D02*X7742D01*
Y-575D02*Y-650D01*
X8267Y-500D02*X8492D01*
X8192Y-575D02*X8267Y-500D01*
X8192Y-575D02*Y-725D01*
X8267Y-800D01*
X8492D01*
X8747D02*X8972D01*
X8672Y-725D02*X8747Y-800D01*
X8672Y-575D02*Y-725D01*
Y-575D02*X8747Y-500D01*
X8897D01*
X8972Y-575D01*
X8672Y-650D02*X8972D01*
Y-575D02*Y-650D01*
X9227Y-575D02*Y-800D01*
Y-575D02*X9302Y-500D01*
X9377D01*
X9452Y-575D01*
Y-800D01*
X9152Y-500D02*X9227Y-575D01*
X9708Y-200D02*Y-725D01*
X9783Y-800D01*
X9633Y-425D02*X9783D01*
X10008Y-800D02*X10233D01*
X9933Y-725D02*X10008Y-800D01*
X9933Y-575D02*Y-725D01*
Y-575D02*X10008Y-500D01*
X10158D01*
X10233Y-575D01*
X9933Y-650D02*X10233D01*
Y-575D02*Y-650D01*
X10488Y-575D02*Y-800D01*
Y-575D02*X10563Y-500D01*
X10713D01*
X10413D02*X10488Y-575D01*
X10893Y-200D02*Y-725D01*
X10968Y-800D01*
X11118Y-350D02*Y-425D01*
Y-575D02*Y-800D01*
X11343Y-575D02*Y-800D01*
Y-575D02*X11418Y-500D01*
X11493D01*
X11568Y-575D01*
Y-800D01*
X11268Y-500D02*X11343Y-575D01*
X11823Y-800D02*X12048D01*
X11748Y-725D02*X11823Y-800D01*
X11748Y-575D02*Y-725D01*
Y-575D02*X11823Y-500D01*
X11973D01*
X12048Y-575D01*
X11748Y-650D02*X12048D01*
Y-575D02*Y-650D01*
X12499Y-575D02*Y-725D01*
Y-575D02*X12574Y-500D01*
X12724D01*
X12799Y-575D01*
Y-725D01*
X12724Y-800D02*X12799Y-725D01*
X12574Y-800D02*X12724D01*
X12499Y-725D02*X12574Y-800D01*
X13054Y-275D02*Y-800D01*
Y-275D02*X13129Y-200D01*
X13204D01*
X12979Y-500D02*X13129D01*
X13699Y-200D02*Y-725D01*
X13774Y-800D01*
X13624Y-425D02*X13774D01*
X13924Y-200D02*Y-800D01*
Y-575D02*X13999Y-500D01*
X14149D01*
X14224Y-575D01*
Y-800D01*
X14404Y-350D02*Y-425D01*
Y-575D02*Y-800D01*
X14629D02*X14854D01*
X14929Y-725D01*
X14854Y-650D02*X14929Y-725D01*
X14629Y-650D02*X14854D01*
X14554Y-575D02*X14629Y-650D01*
X14554Y-575D02*X14629Y-500D01*
X14854D01*
X14929Y-575D01*
X14554Y-725D02*X14629Y-800D01*
X15454D02*X15604D01*
X15529Y-200D02*Y-800D01*
X15379Y-350D02*X15529Y-200D01*
X15785Y-725D02*X15860Y-800D01*
X15785Y-275D02*Y-725D01*
Y-275D02*X15860Y-200D01*
X16010D01*
X16085Y-275D01*
Y-725D01*
X16010Y-800D02*X16085Y-725D01*
X15860Y-800D02*X16010D01*
X15785Y-650D02*X16085Y-350D01*
X16610Y-575D02*Y-800D01*
Y-575D02*X16685Y-500D01*
X16760D01*
X16835Y-575D01*
Y-800D01*
Y-575D02*X16910Y-500D01*
X16985D01*
X17060Y-575D01*
Y-800D01*
X16535Y-500D02*X16610Y-575D01*
X17240Y-350D02*Y-425D01*
Y-575D02*Y-800D01*
X17390Y-200D02*Y-725D01*
X17465Y-800D01*
X17960Y-575D02*Y-800D01*
Y-575D02*X18035Y-500D01*
X18185D01*
X17885D02*X17960Y-575D01*
X18440Y-800D02*X18665D01*
X18365Y-725D02*X18440Y-800D01*
X18365Y-575D02*Y-725D01*
Y-575D02*X18440Y-500D01*
X18590D01*
X18665Y-575D01*
X18365Y-650D02*X18665D01*
Y-575D02*Y-650D01*
X18921Y-500D02*X19146D01*
X18846Y-575D02*X18921Y-500D01*
X18846Y-575D02*Y-725D01*
X18921Y-800D01*
X19146D01*
X19401Y-200D02*Y-725D01*
X19476Y-800D01*
X19326Y-425D02*X19476D01*
X19851Y-500D02*X19926Y-575D01*
X19701Y-500D02*X19851D01*
X19626Y-575D02*X19701Y-500D01*
X19626Y-575D02*Y-725D01*
X19701Y-800D01*
X19926Y-500D02*Y-725D01*
X20001Y-800D01*
X19701D02*X19851D01*
X19926Y-725D01*
X20256Y-575D02*Y-800D01*
Y-575D02*X20331Y-500D01*
X20406D01*
X20481Y-575D01*
Y-800D01*
X20181Y-500D02*X20256Y-575D01*
X20886Y-500D02*X20961Y-575D01*
X20736Y-500D02*X20886D01*
X20661Y-575D02*X20736Y-500D01*
X20661Y-575D02*Y-725D01*
X20736Y-800D01*
X20886D01*
X20961Y-725D01*
X20661Y-950D02*X20736Y-1025D01*
X20886D01*
X20961Y-950D01*
Y-500D02*Y-950D01*
X21141Y-200D02*Y-725D01*
X21216Y-800D01*
X21441D02*X21666D01*
X21366Y-725D02*X21441Y-800D01*
X21366Y-575D02*Y-725D01*
Y-575D02*X21441Y-500D01*
X21591D01*
X21666Y-575D01*
X21366Y-650D02*X21666D01*
Y-575D02*Y-650D01*
X22117Y-500D02*X22417D01*
X22867Y-725D02*X22942Y-800D01*
X22867Y-275D02*Y-725D01*
Y-275D02*X22942Y-200D01*
X23092D01*
X23167Y-275D01*
Y-725D01*
X23092Y-800D02*X23167Y-725D01*
X22942Y-800D02*X23092D01*
X22867Y-650D02*X23167Y-350D01*
X23347Y-950D02*X23497Y-800D01*
X23677Y-725D02*X23752Y-800D01*
X23677Y-275D02*Y-725D01*
Y-275D02*X23752Y-200D01*
X23902D01*
X23977Y-275D01*
Y-725D01*
X23902Y-800D02*X23977Y-725D01*
X23752Y-800D02*X23902D01*
X23677Y-650D02*X23977Y-350D01*
X24502Y-200D02*Y-725D01*
X24577Y-800D01*
X24427Y-425D02*X24577D01*
X24727Y-575D02*Y-725D01*
Y-575D02*X24802Y-500D01*
X24952D01*
X25027Y-575D01*
Y-725D01*
X24952Y-800D02*X25027Y-725D01*
X24802Y-800D02*X24952D01*
X24727Y-725D02*X24802Y-800D01*
X25552D02*X25702D01*
X25627Y-200D02*Y-800D01*
X25477Y-350D02*X25627Y-200D01*
X25883Y-500D02*X26183Y-200D01*
X25883Y-500D02*X26258D01*
X26183Y-200D02*Y-800D01*
X26438Y-200D02*X26738D01*
X26438D02*Y-500D01*
X26513Y-425D01*
X26663D01*
X26738Y-500D01*
Y-725D01*
X26663Y-800D02*X26738Y-725D01*
X26513Y-800D02*X26663D01*
X26438Y-725D02*X26513Y-800D01*
X26918Y-725D02*X26993Y-800D01*
X26918Y-275D02*Y-725D01*
Y-275D02*X26993Y-200D01*
X27143D01*
X27218Y-275D01*
Y-725D01*
X27143Y-800D02*X27218Y-725D01*
X26993Y-800D02*X27143D01*
X26918Y-650D02*X27218Y-350D01*
X27398Y-950D02*X27548Y-800D01*
X27728Y-200D02*X28028D01*
X27728D02*Y-500D01*
X27803Y-425D01*
X27953D01*
X28028Y-500D01*
Y-725D01*
X27953Y-800D02*X28028Y-725D01*
X27803Y-800D02*X27953D01*
X27728Y-725D02*X27803Y-800D01*
X28208D02*X28508Y-500D01*
Y-275D02*Y-500D01*
X28433Y-200D02*X28508Y-275D01*
X28283Y-200D02*X28433D01*
X28208Y-275D02*X28283Y-200D01*
X28208Y-275D02*Y-425D01*
X28283Y-500D01*
X28508D01*
X28689Y-725D02*X28764Y-800D01*
X28689Y-275D02*Y-725D01*
Y-275D02*X28764Y-200D01*
X28914D01*
X28989Y-275D01*
Y-725D01*
X28914Y-800D02*X28989Y-725D01*
X28764Y-800D02*X28914D01*
X28689Y-650D02*X28989Y-350D01*
X29514Y-575D02*Y-800D01*
Y-575D02*X29589Y-500D01*
X29664D01*
X29739Y-575D01*
Y-800D01*
Y-575D02*X29814Y-500D01*
X29889D01*
X29964Y-575D01*
Y-800D01*
X29439Y-500D02*X29514Y-575D01*
X30144Y-350D02*Y-425D01*
Y-575D02*Y-800D01*
X30294Y-200D02*Y-725D01*
X30369Y-800D01*
X30594D02*X30819D01*
X30894Y-725D01*
X30819Y-650D02*X30894Y-725D01*
X30594Y-650D02*X30819D01*
X30519Y-575D02*X30594Y-650D01*
X30519Y-575D02*X30594Y-500D01*
X30819D01*
X30894Y-575D01*
X30519Y-725D02*X30594Y-800D01*
G04 Text: Date: Tue Aug 24 15:19:08 2004 UTC *
X20075Y8900D02*Y8300D01*
X20300Y8900D02*X20375Y8825D01*
Y8375D01*
X20300Y8300D02*X20375Y8375D01*
X20000Y8300D02*X20300D01*
X20000Y8900D02*X20300D01*
X20780Y8600D02*X20855Y8525D01*
X20630Y8600D02*X20780D01*
X20555Y8525D02*X20630Y8600D01*
X20555Y8525D02*Y8375D01*
X20630Y8300D01*
X20855Y8600D02*Y8375D01*
X20930Y8300D01*
X20630D02*X20780D01*
X20855Y8375D01*
X21185Y8900D02*Y8375D01*
X21260Y8300D01*
X21110Y8675D02*X21260D01*
X21485Y8300D02*X21710D01*
X21410Y8375D02*X21485Y8300D01*
X21410Y8525D02*Y8375D01*
Y8525D02*X21485Y8600D01*
X21635D01*
X21710Y8525D01*
X21410Y8450D02*X21710D01*
Y8525D02*Y8450D01*
X21890Y8675D02*X21965D01*
X21890Y8525D02*X21965D01*
X22415Y8900D02*X22715D01*
X22565D02*Y8300D01*
X22895Y8600D02*Y8375D01*
X22970Y8300D01*
X23120D01*
X23195Y8375D01*
Y8600D02*Y8375D01*
X23451Y8300D02*X23676D01*
X23376Y8375D02*X23451Y8300D01*
X23376Y8525D02*Y8375D01*
Y8525D02*X23451Y8600D01*
X23601D01*
X23676Y8525D01*
X23376Y8450D02*X23676D01*
Y8525D02*Y8450D01*
X24126Y8825D02*Y8300D01*
Y8825D02*X24201Y8900D01*
X24426D01*
X24501Y8825D01*
Y8300D01*
X24126Y8600D02*X24501D01*
X24681D02*Y8375D01*
X24756Y8300D01*
X24906D01*
X24981Y8375D01*
Y8600D02*Y8375D01*
X25386Y8600D02*X25461Y8525D01*
X25236Y8600D02*X25386D01*
X25161Y8525D02*X25236Y8600D01*
X25161Y8525D02*Y8375D01*
X25236Y8300D01*
X25386D01*
X25461Y8375D01*
X25161Y8150D02*X25236Y8075D01*
X25386D01*
X25461Y8150D01*
Y8600D02*Y8150D01*
X25911Y8825D02*X25986Y8900D01*
X26211D01*
X26286Y8825D01*
Y8675D01*
X25911Y8300D02*X26286Y8675D01*
X25911Y8300D02*X26286D01*
X26466Y8600D02*X26766Y8900D01*
X26466Y8600D02*X26841D01*
X26766Y8900D02*Y8300D01*
X27366D02*X27516D01*
X27441Y8900D02*Y8300D01*
X27291Y8750D02*X27441Y8900D01*
X27697D02*X27997D01*
X27697D02*Y8600D01*
X27772Y8675D01*
X27922D01*
X27997Y8600D01*
Y8375D01*
X27922Y8300D02*X27997Y8375D01*
X27772Y8300D02*X27922D01*
X27697Y8375D02*X27772Y8300D01*
X28177Y8675D02*X28252D01*
X28177Y8525D02*X28252D01*
X28507Y8300D02*X28657D01*
X28582Y8900D02*Y8300D01*
X28432Y8750D02*X28582Y8900D01*
X28837Y8300D02*X29137Y8600D01*
Y8825D02*Y8600D01*
X29062Y8900D02*X29137Y8825D01*
X28912Y8900D02*X29062D01*
X28837Y8825D02*X28912Y8900D01*
X28837Y8825D02*Y8675D01*
X28912Y8600D01*
X29137D01*
X29317Y8675D02*X29392D01*
X29317Y8525D02*X29392D01*
X29572Y8375D02*X29647Y8300D01*
X29572Y8825D02*Y8375D01*
Y8825D02*X29647Y8900D01*
X29797D01*
X29872Y8825D01*
Y8375D01*
X29797Y8300D02*X29872Y8375D01*
X29647Y8300D02*X29797D01*
X29572Y8450D02*X29872Y8750D01*
X30053Y8375D02*X30128Y8300D01*
X30053Y8525D02*Y8375D01*
Y8525D02*X30128Y8600D01*
X30278D01*
X30353Y8525D01*
Y8375D01*
X30278Y8300D02*X30353Y8375D01*
X30128Y8300D02*X30278D01*
X30053Y8675D02*X30128Y8600D01*
X30053Y8825D02*Y8675D01*
Y8825D02*X30128Y8900D01*
X30278D01*
X30353Y8825D01*
Y8675D01*
X30278Y8600D02*X30353Y8675D01*
X30803Y8825D02*X30878Y8900D01*
X31103D01*
X31178Y8825D01*
Y8675D01*
X30803Y8300D02*X31178Y8675D01*
X30803Y8300D02*X31178D01*
X31358Y8375D02*X31433Y8300D01*
X31358Y8825D02*Y8375D01*
Y8825D02*X31433Y8900D01*
X31583D01*
X31658Y8825D01*
Y8375D01*
X31583Y8300D02*X31658Y8375D01*
X31433Y8300D02*X31583D01*
X31358Y8450D02*X31658Y8750D01*
X31838Y8375D02*X31913Y8300D01*
X31838Y8825D02*Y8375D01*
Y8825D02*X31913Y8900D01*
X32063D01*
X32138Y8825D01*
Y8375D01*
X32063Y8300D02*X32138Y8375D01*
X31913Y8300D02*X32063D01*
X31838Y8450D02*X32138Y8750D01*
X32318Y8600D02*X32618Y8900D01*
X32318Y8600D02*X32693D01*
X32618Y8900D02*Y8300D01*
X33143Y8900D02*Y8375D01*
X33218Y8300D01*
X33368D01*
X33443Y8375D01*
Y8900D02*Y8375D01*
X33623Y8900D02*X33923D01*
X33773D02*Y8300D01*
X34179D02*X34404D01*
X34104Y8375D02*X34179Y8300D01*
X34104Y8825D02*Y8375D01*
Y8825D02*X34179Y8900D01*
X34404D01*
G04 Text: Author: Marek P.,,, *
X20000Y10325D02*Y9800D01*
Y10325D02*X20075Y10400D01*
X20300D01*
X20375Y10325D01*
Y9800D01*
X20000Y10100D02*X20375D01*
X20555D02*Y9875D01*
X20630Y9800D01*
X20780D01*
X20855Y9875D01*
Y10100D02*Y9875D01*
X21110Y10400D02*Y9875D01*
X21185Y9800D01*
X21035Y10175D02*X21185D01*
X21335Y10400D02*Y9800D01*
Y10025D02*X21410Y10100D01*
X21560D01*
X21635Y10025D01*
Y9800D01*
X21815Y10025D02*Y9875D01*
Y10025D02*X21890Y10100D01*
X22040D01*
X22115Y10025D01*
Y9875D01*
X22040Y9800D02*X22115Y9875D01*
X21890Y9800D02*X22040D01*
X21815Y9875D02*X21890Y9800D01*
X22370Y10025D02*Y9800D01*
Y10025D02*X22445Y10100D01*
X22595D01*
X22295D02*X22370Y10025D01*
X22775Y10175D02*X22850D01*
X22775Y10025D02*X22850D01*
X23301Y10400D02*Y9800D01*
Y10400D02*X23526Y10175D01*
X23751Y10400D01*
Y9800D01*
X24156Y10100D02*X24231Y10025D01*
X24006Y10100D02*X24156D01*
X23931Y10025D02*X24006Y10100D01*
X23931Y10025D02*Y9875D01*
X24006Y9800D01*
X24231Y10100D02*Y9875D01*
X24306Y9800D01*
X24006D02*X24156D01*
X24231Y9875D01*
X24561Y10025D02*Y9800D01*
Y10025D02*X24636Y10100D01*
X24786D01*
X24486D02*X24561Y10025D01*
X25041Y9800D02*X25266D01*
X24966Y9875D02*X25041Y9800D01*
X24966Y10025D02*Y9875D01*
Y10025D02*X25041Y10100D01*
X25191D01*
X25266Y10025D01*
X24966Y9950D02*X25266D01*
Y10025D02*Y9950D01*
X25446Y10400D02*Y9800D01*
Y10025D02*X25671Y9800D01*
X25446Y10025D02*X25596Y10175D01*
X26196Y10400D02*Y9800D01*
X26121Y10400D02*X26421D01*
X26496Y10325D01*
Y10175D01*
X26421Y10100D02*X26496Y10175D01*
X26196Y10100D02*X26421D01*
X26676Y9800D02*X26751D01*
X26932Y9650D02*X27082Y9800D01*
X27262Y9650D02*X27412Y9800D01*
X27592Y9650D02*X27742Y9800D01*
G04 Text: Title: (unknown) - Fabrication Drawing *
X20000Y11900D02*X20300D01*
X20150D02*Y11300D01*
X20480Y11750D02*Y11675D01*
Y11525D02*Y11300D01*
X20705Y11900D02*Y11375D01*
X20780Y11300D01*
X20630Y11675D02*X20780D01*
X20930Y11900D02*Y11375D01*
X21005Y11300D01*
X21230D02*X21455D01*
X21155Y11375D02*X21230Y11300D01*
X21155Y11525D02*Y11375D01*
Y11525D02*X21230Y11600D01*
X21380D01*
X21455Y11525D01*
X21155Y11450D02*X21455D01*
Y11525D02*Y11450D01*
X21635Y11675D02*X21710D01*
X21635Y11525D02*X21710D01*
X22160Y11375D02*X22235Y11300D01*
X22160Y11825D02*X22235Y11900D01*
X22160Y11825D02*Y11375D01*
X22416Y11600D02*Y11375D01*
X22491Y11300D01*
X22641D01*
X22716Y11375D01*
Y11600D02*Y11375D01*
X22971Y11525D02*Y11300D01*
Y11525D02*X23046Y11600D01*
X23121D01*
X23196Y11525D01*
Y11300D01*
X22896Y11600D02*X22971Y11525D01*
X23376Y11900D02*Y11300D01*
Y11525D02*X23601Y11300D01*
X23376Y11525D02*X23526Y11675D01*
X23856Y11525D02*Y11300D01*
Y11525D02*X23931Y11600D01*
X24006D01*
X24081Y11525D01*
Y11300D01*
X23781Y11600D02*X23856Y11525D01*
X24261D02*Y11375D01*
Y11525D02*X24336Y11600D01*
X24486D01*
X24561Y11525D01*
Y11375D01*
X24486Y11300D02*X24561Y11375D01*
X24336Y11300D02*X24486D01*
X24261Y11375D02*X24336Y11300D01*
X24741Y11600D02*Y11375D01*
X24816Y11300D01*
X24891D01*
X24966Y11375D01*
Y11600D02*Y11375D01*
X25041Y11300D01*
X25116D01*
X25191Y11375D01*
Y11600D02*Y11375D01*
X25446Y11525D02*Y11300D01*
Y11525D02*X25521Y11600D01*
X25596D01*
X25671Y11525D01*
Y11300D01*
X25371Y11600D02*X25446Y11525D01*
X25852Y11900D02*X25927Y11825D01*
Y11375D01*
X25852Y11300D02*X25927Y11375D01*
X26377Y11600D02*X26677D01*
X27127Y11900D02*Y11300D01*
Y11900D02*X27427D01*
X27127Y11600D02*X27352D01*
X27832D02*X27907Y11525D01*
X27682Y11600D02*X27832D01*
X27607Y11525D02*X27682Y11600D01*
X27607Y11525D02*Y11375D01*
X27682Y11300D01*
X27907Y11600D02*Y11375D01*
X27982Y11300D01*
X27682D02*X27832D01*
X27907Y11375D01*
X28162Y11900D02*Y11300D01*
Y11375D02*X28237Y11300D01*
X28387D01*
X28462Y11375D01*
Y11525D02*Y11375D01*
X28387Y11600D02*X28462Y11525D01*
X28237Y11600D02*X28387D01*
X28162Y11525D02*X28237Y11600D01*
X28717Y11525D02*Y11300D01*
Y11525D02*X28792Y11600D01*
X28942D01*
X28642D02*X28717Y11525D01*
X29123Y11750D02*Y11675D01*
Y11525D02*Y11300D01*
X29348Y11600D02*X29573D01*
X29273Y11525D02*X29348Y11600D01*
X29273Y11525D02*Y11375D01*
X29348Y11300D01*
X29573D01*
X29978Y11600D02*X30053Y11525D01*
X29828Y11600D02*X29978D01*
X29753Y11525D02*X29828Y11600D01*
X29753Y11525D02*Y11375D01*
X29828Y11300D01*
X30053Y11600D02*Y11375D01*
X30128Y11300D01*
X29828D02*X29978D01*
X30053Y11375D01*
X30383Y11900D02*Y11375D01*
X30458Y11300D01*
X30308Y11675D02*X30458D01*
X30608Y11750D02*Y11675D01*
Y11525D02*Y11300D01*
X30758Y11525D02*Y11375D01*
Y11525D02*X30833Y11600D01*
X30983D01*
X31058Y11525D01*
Y11375D01*
X30983Y11300D02*X31058Y11375D01*
X30833Y11300D02*X30983D01*
X30758Y11375D02*X30833Y11300D01*
X31313Y11525D02*Y11300D01*
Y11525D02*X31388Y11600D01*
X31463D01*
X31538Y11525D01*
Y11300D01*
X31238Y11600D02*X31313Y11525D01*
X32064Y11900D02*Y11300D01*
X32289Y11900D02*X32364Y11825D01*
Y11375D01*
X32289Y11300D02*X32364Y11375D01*
X31989Y11300D02*X32289D01*
X31989Y11900D02*X32289D01*
X32619Y11525D02*Y11300D01*
Y11525D02*X32694Y11600D01*
X32844D01*
X32544D02*X32619Y11525D01*
X33249Y11600D02*X33324Y11525D01*
X33099Y11600D02*X33249D01*
X33024Y11525D02*X33099Y11600D01*
X33024Y11525D02*Y11375D01*
X33099Y11300D01*
X33324Y11600D02*Y11375D01*
X33399Y11300D01*
X33099D02*X33249D01*
X33324Y11375D01*
X33579Y11600D02*Y11375D01*
X33654Y11300D01*
X33729D01*
X33804Y11375D01*
Y11600D02*Y11375D01*
X33879Y11300D01*
X33954D01*
X34029Y11375D01*
Y11600D02*Y11375D01*
X34209Y11750D02*Y11675D01*
Y11525D02*Y11300D01*
X34434Y11525D02*Y11300D01*
Y11525D02*X34509Y11600D01*
X34584D01*
X34659Y11525D01*
Y11300D01*
X34359Y11600D02*X34434Y11525D01*
X35064Y11600D02*X35139Y11525D01*
X34914Y11600D02*X35064D01*
X34839Y11525D02*X34914Y11600D01*
X34839Y11525D02*Y11375D01*
X34914Y11300D01*
X35064D01*
X35139Y11375D01*
X34839Y11150D02*X34914Y11075D01*
X35064D01*
X35139Y11150D01*
Y11600D02*Y11150D01*
M02*
