G04 Title: (unknown), solder paste, component side *
G04 Creator: pcb-bin 1.99p *
G04 CreationDate: Tue Aug 24 15:19:08 2004 UTC *
G04 For: marek *
G04 Format: Gerber/RS-274X *
G04 PCB-Dimensions: 145000 59000 *
G04 PCB-Coordinate-Origin: lower left *
%MOIN*%
%FSLAX24Y24*%
%IPPOS*%
%ADD11C,0.0150*%
%ADD12C,0.0600*%
%ADD13C,0.0800*%
%ADD14R,0.0600X0.0600*%
%ADD15R,0.0800X0.0800*%
%ADD16C,0.0080*%
%ADD17C,0.0660*%
%ADD18C,0.0100*%
%ADD19C,0.0200*%
%ADD20C,0.0500*%
%ADD21C,0.0260*%
%ADD22R,0.0200X0.0200*%
%ADD23R,0.0500X0.0500*%
%ADD24R,0.0260X0.0260*%
%ADD25R,0.0360X0.0360*%
%ADD26R,0.0560X0.0560*%
%ADD27R,0.0420X0.0420*%
%ADD28R,0.0480X0.0480*%
%ADD29R,0.0680X0.0680*%
%ADD30R,0.0540X0.0540*%
%ADD31C,0.0400*%
%LNGROUP_1*%
%LPD*%
G01X0Y0D02*
G54D12*X13350Y790D02*X14100D01*
G54D14*X13350Y2950D02*X14100D01*
X13350Y5110D02*X14100D01*
X13350Y1870D02*X14100D01*
X13350Y4030D02*X14100D01*
G54D12*X400Y790D02*X1150D01*
G54D14*X400Y2950D02*X1150D01*
X400Y5110D02*X1150D01*
X400Y1870D02*X1150D01*
X400Y4030D02*X1150D01*
G54D19*X8610Y5200D02*X8890D01*
G54D22*X8610Y4700D02*X8890D01*
X8610Y4200D02*X8890D01*
X8610Y3700D02*X8890D01*
X8610Y3200D02*X8890D01*
X8610Y2700D02*X8890D01*
X8610Y2200D02*X8890D01*
X8610Y1700D02*X8890D01*
X8610Y1200D02*X8890D01*
X8610Y700D02*X8890D01*
X12400D02*X12680D01*
X12400Y1200D02*X12680D01*
X12400Y1700D02*X12680D01*
X12400Y2200D02*X12680D01*
X12400Y2700D02*X12680D01*
X12400Y3200D02*X12680D01*
X12400Y3700D02*X12680D01*
X12400Y4200D02*X12680D01*
X12400Y4700D02*X12680D01*
X12400Y5200D02*X12680D01*
G54D19*X1810Y5600D02*X2090D01*
G54D22*X1810Y5100D02*X2090D01*
X1810Y4600D02*X2090D01*
X1810Y4100D02*X2090D01*
X1810Y3600D02*X2090D01*
X1810Y3100D02*X2090D01*
X1810Y2600D02*X2090D01*
X1810Y2100D02*X2090D01*
X3850D02*X4130D01*
X3850Y2600D02*X4130D01*
X3850Y3100D02*X4130D01*
X3850Y3600D02*X4130D01*
X3850Y4100D02*X4130D01*
X3850Y4600D02*X4130D01*
X3850Y5100D02*X4130D01*
X3850Y5600D02*X4130D01*
M02*
