G04 Title: (unknown), silkscreen, solder side *
G04 Creator: pcb-bin 1.99p *
G04 CreationDate: Tue Aug 24 15:19:08 2004 UTC *
G04 For: marek *
G04 Format: Gerber/RS-274X *
G04 PCB-Dimensions: 145000 59000 *
G04 PCB-Coordinate-Origin: lower left *
%MOIN*%
%FSLAX24Y24*%
%IPPOS*%
%ADD11C,0.0150*%
%ADD12C,0.0600*%
%ADD13C,0.0800*%
%ADD14R,0.0600X0.0600*%
%ADD15R,0.0800X0.0800*%
%ADD16C,0.0080*%
%ADD17C,0.0660*%
%ADD18C,0.0100*%
%ADD19C,0.0200*%
%ADD20C,0.0500*%
%ADD21C,0.0260*%
%ADD22R,0.0200X0.0200*%
%ADD23R,0.0500X0.0500*%
%ADD24R,0.0260X0.0260*%
%ADD25R,0.0360X0.0360*%
%ADD26R,0.0560X0.0560*%
%ADD27R,0.0420X0.0420*%
%ADD28R,0.0480X0.0480*%
%ADD29R,0.0680X0.0680*%
%ADD30R,0.0540X0.0540*%
%ADD31C,0.0400*%
%LNGROUP_1*%
%LPD*%
G01X0Y0D02*
G54D18*X6450Y3500D02*Y2300D01*
X5550Y3500D02*X6450D01*
X5550D02*Y2300D01*
X6450D01*
G04 Text: C2 *
G54D16*X5650Y4000D02*X5800D01*
X5600Y3950D02*X5650Y4000D01*
X5600Y3650D02*Y3950D01*
Y3650D02*X5650Y3600D01*
X5800D01*
X5920Y3650D02*X5970Y3600D01*
X6120D01*
X6170Y3650D01*
Y3750D01*
X5920Y4000D02*X6170Y3750D01*
X5920Y4000D02*X6170D01*
G54D18*X10160Y2540D02*X11840D01*
X10160Y1460D02*Y2540D01*
Y1460D02*X11840D01*
Y2540D01*
G04 Text: C7 *
G54D16*X11150Y3050D02*X11300D01*
X11100Y3000D02*X11150Y3050D01*
X11100Y2700D02*Y3000D01*
Y2700D02*X11150Y2650D01*
X11300D01*
X11420Y3050D02*X11670Y2800D01*
Y2650D02*Y2800D01*
X11420Y2650D02*X11670D01*
G54D18*X11600Y450D02*X10400D01*
X11600Y1350D02*Y450D01*
X10400Y1350D02*X11600D01*
X10400Y450D02*Y1350D01*
G04 Text: C8 *
G54D16*X11750Y900D02*X11900D01*
X11700Y850D02*X11750Y900D01*
X11700Y550D02*Y850D01*
Y550D02*X11750Y500D01*
X11900D01*
X12020Y850D02*X12070Y900D01*
X12020Y750D02*Y850D01*
Y750D02*X12070Y700D01*
X12170D01*
X12220Y750D01*
Y850D01*
X12170Y900D02*X12220Y850D01*
X12070Y900D02*X12170D01*
X12020Y650D02*X12070Y700D01*
X12020Y550D02*Y650D01*
Y550D02*X12070Y500D01*
X12170D01*
X12220Y550D01*
Y650D01*
X12170Y700D02*X12220Y650D01*
G54D18*X8500Y3550D02*Y2350D01*
X9400D01*
Y3550D02*Y2350D01*
X8500Y3550D02*X9400D01*
G04 Text: R3 *
G54D16*X9500Y2800D02*X9700D01*
X9750Y2850D01*
Y2950D01*
X9700Y3000D02*X9750Y2950D01*
X9550Y3000D02*X9700D01*
X9550Y2800D02*Y3200D01*
Y3000D02*X9750Y3200D01*
X9870Y2850D02*X9920Y2800D01*
X10020D01*
X10070Y2850D01*
Y3150D01*
X10020Y3200D02*X10070Y3150D01*
X9920Y3200D02*X10020D01*
X9870Y3150D02*X9920Y3200D01*
Y3000D02*X10070D01*
G54D18*X8350Y4550D02*X9550D01*
X8350D02*Y3650D01*
X9550D01*
Y4550D02*Y3650D01*
G04 Text: R2 *
G54D16*X8700Y4650D02*X8900D01*
X8950Y4700D01*
Y4800D01*
X8900Y4850D02*X8950Y4800D01*
X8750Y4850D02*X8900D01*
X8750Y4650D02*Y5050D01*
Y4850D02*X8950Y5050D01*
X9070Y4700D02*X9120Y4650D01*
X9270D01*
X9320Y4700D01*
Y4800D01*
X9070Y5050D02*X9320Y4800D01*
X9070Y5050D02*X9320D01*
G54D18*X2810Y1340D02*X4490D01*
X2810D02*Y260D01*
X4490D01*
Y1340D02*Y260D01*
G04 Text: C4 *
G54D16*X3400Y1850D02*X3550D01*
X3350Y1800D02*X3400Y1850D01*
X3350Y1500D02*Y1800D01*
Y1500D02*X3400Y1450D01*
X3550D01*
X3670Y1650D02*X3870Y1450D01*
X3670Y1650D02*X3920D01*
X3870Y1450D02*Y1850D01*
G54D18*X3610Y4040D02*Y2360D01*
X4690D01*
Y4040D02*Y2360D01*
X3610Y4040D02*X4690D01*
G04 Text: C5 *
G54D16*X3950Y3400D02*X4100D01*
X3900Y3350D02*X3950Y3400D01*
X3900Y3050D02*Y3350D01*
Y3050D02*X3950Y3000D01*
X4100D01*
X4220D02*X4420D01*
X4220D02*Y3200D01*
X4270Y3150D01*
X4370D01*
X4420Y3200D01*
Y3350D01*
X4370Y3400D02*X4420Y3350D01*
X4270Y3400D02*X4370D01*
X4220Y3350D02*X4270Y3400D01*
G54D18*X2740Y60D02*Y1740D01*
X1660D02*X2740D01*
X1660Y60D02*Y1740D01*
Y60D02*X2740D01*
G04 Text: C6 *
G54D16*X1700Y2250D02*X1850D01*
X1650Y2200D02*X1700Y2250D01*
X1650Y1900D02*Y2200D01*
Y1900D02*X1700Y1850D01*
X1850D01*
X2120D02*X2170Y1900D01*
X2020Y1850D02*X2120D01*
X1970Y1900D02*X2020Y1850D01*
X1970Y1900D02*Y2200D01*
X2020Y2250D01*
X2120Y2050D02*X2170Y2100D01*
X1970Y2050D02*X2120D01*
X2020Y2250D02*X2120D01*
X2170Y2200D01*
Y2100D02*Y2200D01*
G54D18*X4550Y1100D02*X5750D01*
Y2000D02*Y1100D01*
X4550Y2000D02*X5750D01*
X4550D02*Y1100D01*
G04 Text: C1 *
G54D16*X5650Y1000D02*X5800D01*
X5600Y950D02*X5650Y1000D01*
X5600Y650D02*Y950D01*
Y650D02*X5650Y600D01*
X5800D01*
X5970Y1000D02*X6070D01*
X6020Y600D02*Y1000D01*
X5920Y700D02*X6020Y600D01*
G54D18*X3160Y5840D02*Y4160D01*
X4240D01*
Y5840D02*Y4160D01*
X3160Y5840D02*X4240D01*
G04 Text: C3 *
G54D16*X3450Y5200D02*X3600D01*
X3400Y5150D02*X3450Y5200D01*
X3400Y4850D02*Y5150D01*
Y4850D02*X3450Y4800D01*
X3600D01*
X3720Y4850D02*X3770Y4800D01*
X3870D01*
X3920Y4850D01*
Y5150D01*
X3870Y5200D02*X3920Y5150D01*
X3770Y5200D02*X3870D01*
X3720Y5150D02*X3770Y5200D01*
Y5000D02*X3920D01*
G54D18*X8350Y2250D02*X9550D01*
X8350D02*Y1350D01*
X9550D01*
Y2250D02*Y1350D01*
G04 Text: R1 *
G54D16*X8650Y850D02*X8850D01*
X8900Y900D01*
Y1000D01*
X8850Y1050D02*X8900Y1000D01*
X8700Y1050D02*X8850D01*
X8700Y850D02*Y1250D01*
Y1050D02*X8900Y1250D01*
X9070D02*X9170D01*
X9120Y850D02*Y1250D01*
X9020Y950D02*X9120Y850D01*
G04 Text: + *
X4600Y400D02*X4800D01*
X4700Y300D02*Y500D01*
G04 Text: + *
X4350Y5700D02*X4550D01*
X4450Y5600D02*Y5800D01*
G04 Text: + *
X4800Y3800D02*X5000D01*
X4900Y3700D02*Y3900D01*
G04 Text: + *
X1300Y400D02*X1500D01*
X1400Y300D02*Y500D01*
G04 Text: + *
X11950Y2350D02*X12150D01*
X12050Y2250D02*Y2450D01*
%LNCUTS*%
%LPC*%
G54D12*X5200Y800D03*
Y2800D03*
X6750Y4100D03*
X7750D03*
X6750Y1800D03*
X7750D03*
X6750Y2950D03*
X4900Y5300D03*
X13350Y790D02*X14100D01*
X400D02*X1150D01*
G54D19*X8610Y5200D02*X8890D01*
G54D22*X8610Y4700D02*X8890D01*
X8610Y4200D02*X8890D01*
X8610Y3700D02*X8890D01*
X8610Y3200D02*X8890D01*
X8610Y2700D02*X8890D01*
X8610Y2200D02*X8890D01*
X8610Y1700D02*X8890D01*
X8610Y1200D02*X8890D01*
X8610Y700D02*X8890D01*
X12400D02*X12680D01*
X12400Y1200D02*X12680D01*
X12400Y1700D02*X12680D01*
X12400Y2200D02*X12680D01*
X12400Y2700D02*X12680D01*
X12400Y3200D02*X12680D01*
X12400Y3700D02*X12680D01*
X12400Y4200D02*X12680D01*
X12400Y4700D02*X12680D01*
X12400Y5200D02*X12680D01*
G54D25*X5830Y2580D02*X6170D01*
X5830Y3220D02*X6170D01*
G54D19*X1810Y5600D02*X2090D01*
G54D22*X1810Y5100D02*X2090D01*
X1810Y4600D02*X2090D01*
X1810Y4100D02*X2090D01*
X1810Y3600D02*X2090D01*
X1810Y3100D02*X2090D01*
X1810Y2600D02*X2090D01*
X1810Y2100D02*X2090D01*
X3850D02*X4130D01*
X3850Y2600D02*X4130D01*
X3850Y3100D02*X4130D01*
X3850Y3600D02*X4130D01*
X3850Y4100D02*X4130D01*
X3850Y4600D02*X4130D01*
X3850Y5100D02*X4130D01*
X3850Y5600D02*X4130D01*
G54D25*X8630Y4270D02*Y3930D01*
G54D28*X3970Y3680D02*X4330D01*
X3970Y2720D02*X4330D01*
G54D25*X4830Y1720D02*Y1380D01*
X5470Y1720D02*Y1380D01*
G54D28*X3520Y5480D02*X3880D01*
X3520Y4520D02*X3880D01*
G54D25*X8630Y1970D02*Y1630D01*
M02*
