G04 Title: (unknown), solder paste, solder side *
G04 Creator: pcb-bin 1.99p *
G04 CreationDate: Tue Aug 24 15:19:08 2004 UTC *
G04 For: marek *
G04 Format: Gerber/RS-274X *
G04 PCB-Dimensions: 145000 59000 *
G04 PCB-Coordinate-Origin: lower left *
%MOIN*%
%FSLAX24Y24*%
%IPPOS*%
%ADD11C,0.0150*%
%ADD12C,0.0600*%
%ADD13C,0.0800*%
%ADD14R,0.0600X0.0600*%
%ADD15R,0.0800X0.0800*%
%ADD16C,0.0080*%
%ADD17C,0.0660*%
%ADD18C,0.0100*%
%ADD19C,0.0200*%
%ADD20C,0.0500*%
%ADD21C,0.0260*%
%ADD22R,0.0200X0.0200*%
%ADD23R,0.0500X0.0500*%
%ADD24R,0.0260X0.0260*%
%ADD25R,0.0360X0.0360*%
%ADD26R,0.0560X0.0560*%
%ADD27R,0.0420X0.0420*%
%ADD28R,0.0480X0.0480*%
%ADD29R,0.0680X0.0680*%
%ADD30R,0.0540X0.0540*%
%ADD31C,0.0400*%
%LNGROUP_1*%
%LPD*%
G01X0Y0D02*
G54D14*X13350Y4570D02*X14100D01*
X13350Y1330D02*X14100D01*
X13350Y2410D02*X14100D01*
X13350Y3490D02*X14100D01*
X400Y4570D02*X1150D01*
X400Y1330D02*X1150D01*
X400Y2410D02*X1150D01*
X400Y3490D02*X1150D01*
G54D25*X5830Y2580D02*X6170D01*
X5830Y3220D02*X6170D01*
G54D28*X11480Y2180D02*Y1820D01*
X10520Y2180D02*Y1820D01*
G54D25*X10680Y1070D02*Y730D01*
X11320Y1070D02*Y730D01*
X8780Y3270D02*X9120D01*
X8780Y2630D02*X9120D01*
X9270Y4270D02*Y3930D01*
X8630Y4270D02*Y3930D01*
G54D28*X4130Y980D02*Y620D01*
X3170Y980D02*Y620D01*
X3970Y3680D02*X4330D01*
X3970Y2720D02*X4330D01*
X2020Y420D02*X2380D01*
X2020Y1380D02*X2380D01*
G54D25*X4830Y1720D02*Y1380D01*
X5470Y1720D02*Y1380D01*
G54D28*X3520Y5480D02*X3880D01*
X3520Y4520D02*X3880D01*
G54D25*X9270Y1970D02*Y1630D01*
X8630Y1970D02*Y1630D01*
M02*
