G04 Title: (unknown), silkscreen, component side *
G04 Creator: pcb-bin 1.99p *
G04 CreationDate: Tue Aug 24 15:19:08 2004 UTC *
G04 For: marek *
G04 Format: Gerber/RS-274X *
G04 PCB-Dimensions: 145000 59000 *
G04 PCB-Coordinate-Origin: lower left *
%MOIN*%
%FSLAX24Y24*%
%IPPOS*%
%ADD11C,0.0150*%
%ADD12C,0.0600*%
%ADD13C,0.0800*%
%ADD14R,0.0600X0.0600*%
%ADD15R,0.0800X0.0800*%
%ADD16C,0.0080*%
%ADD17C,0.0660*%
%ADD18C,0.0100*%
%ADD19C,0.0200*%
%ADD20C,0.0500*%
%ADD21C,0.0260*%
%ADD22R,0.0200X0.0200*%
%ADD23R,0.0500X0.0500*%
%ADD24R,0.0260X0.0260*%
%ADD25R,0.0360X0.0360*%
%ADD26R,0.0560X0.0560*%
%ADD27R,0.0420X0.0420*%
%ADD28R,0.0480X0.0480*%
%ADD29R,0.0680X0.0680*%
%ADD30R,0.0540X0.0540*%
%ADD31C,0.0400*%
%LNGROUP_1*%
%LPD*%
G01X0Y0D02*
G04 Text: K2 *
G54D16*X13100Y450D02*Y50D01*
Y250D02*X13300Y450D01*
X13100Y250D02*X13300Y50D01*
X13420Y400D02*X13470Y450D01*
X13620D01*
X13670Y400D01*
Y300D01*
X13420Y50D02*X13670Y300D01*
X13420Y50D02*X13670D01*
G04 Text: K1 *
X900Y450D02*Y50D01*
Y250D02*X1100Y450D01*
X900Y250D02*X1100Y50D01*
X1270D02*X1370D01*
X1320Y450D02*Y50D01*
X1220Y350D02*X1320Y450D01*
G54D18*X4700Y2800D02*Y800D01*
X5700Y2800D02*Y800D01*
X4700D02*G75*G03X5700Y800I500J0D01*G01*
Y2800D02*G75*G03X4700Y2800I-500J0D01*G01*
X7250Y3600D02*G75*G03X7250Y3600I0J500D01*G01*
G54D11*Y3800D02*G75*G03X7250Y3800I0J300D01*G01*
G04 Text: D2 *
G54D16*X5800Y4300D02*Y3900D01*
X5950Y4300D02*X6000Y4250D01*
Y3950D01*
X5950Y3900D02*X6000Y3950D01*
X5750Y3900D02*X5950D01*
X5750Y4300D02*X5950D01*
X6120Y4250D02*X6170Y4300D01*
X6320D01*
X6370Y4250D01*
Y4150D01*
X6120Y3900D02*X6370Y4150D01*
X6120Y3900D02*X6370D01*
G54D18*X7250Y1300D02*G75*G03X7250Y1300I0J500D01*G01*
G54D11*Y1500D02*G75*G03X7250Y1500I0J300D01*G01*
G04 Text: D1 *
G54D16*X5900Y2250D02*Y1850D01*
X6050Y2250D02*X6100Y2200D01*
Y1900D01*
X6050Y1850D02*X6100Y1900D01*
X5850Y1850D02*X6050D01*
X5850Y2250D02*X6050D01*
X6270Y1850D02*X6370D01*
X6320Y2250D02*Y1850D01*
X6220Y2150D02*X6320Y2250D01*
G54D18*X8510Y450D02*Y5450D01*
X12780Y450D02*X8510D01*
X12780Y5450D02*Y450D01*
X10390Y5450D02*X12780D01*
X8510D02*X10890D01*
X10390D02*G75*G03X10890Y5450I250J0D01*G01*
G04 Text: U1 *
G54D16*X10350Y3650D02*Y3300D01*
X10400Y3250D01*
X10500D01*
X10550Y3300D01*
Y3650D02*Y3300D01*
X10720Y3250D02*X10820D01*
X10770Y3650D02*Y3250D01*
X10670Y3550D02*X10770Y3650D01*
G54D18*X1710Y5850D02*Y1850D01*
X4230D01*
Y5850D02*Y1850D01*
X2720Y5850D02*X4230D01*
X1710D02*X3220D01*
X2720D02*G75*G03X3220Y5850I250J0D01*G01*
G04 Text: U2 *
G54D16*X2800Y3900D02*Y3550D01*
X2850Y3500D01*
X2950D01*
X3000Y3550D01*
Y3900D02*Y3550D01*
X3120Y3850D02*X3170Y3900D01*
X3320D01*
X3370Y3850D01*
Y3750D01*
X3120Y3500D02*X3370Y3750D01*
X3120Y3500D02*X3370D01*
G54D18*X7250Y2450D02*X8250D01*
X7250Y3450D02*Y2450D01*
G54D19*X8250Y3450D02*Y2450D01*
X6250D02*X8250D01*
X6250Y3450D02*Y2450D01*
Y3450D02*X8250D01*
G04 Text: S1 *
G54D16*X5800Y3650D02*X5850Y3600D01*
X5650Y3650D02*X5800D01*
X5600Y3600D02*X5650Y3650D01*
X5600Y3600D02*Y3500D01*
X5650Y3450D01*
X5800D01*
X5850Y3400D01*
Y3300D01*
X5800Y3250D02*X5850Y3300D01*
X5650Y3250D02*X5800D01*
X5600Y3300D02*X5650Y3250D01*
X6020D02*X6120D01*
X6070Y3650D02*Y3250D01*
X5970Y3550D02*X6070Y3650D01*
G54D18*X7100Y100D02*X8100D01*
X7100Y1100D02*Y100D01*
G54D19*X8100Y1100D02*Y100D01*
X6100D02*X8100D01*
X6100Y1100D02*Y100D01*
Y1100D02*X8100D01*
G04 Text: J1 *
G54D16*X8250Y450D02*X8400D01*
Y100D01*
X8350Y50D02*X8400Y100D01*
X8300Y50D02*X8350D01*
X8250Y100D02*X8300Y50D01*
X8570D02*X8670D01*
X8620Y450D02*Y50D01*
X8520Y350D02*X8620Y450D01*
G54D18*X7400Y4800D02*X8400D01*
X7400Y5800D02*Y4800D01*
G54D19*X8400Y5800D02*Y4800D01*
X4400D02*X8400D01*
X4400Y5800D02*Y4800D01*
Y5800D02*X8400D01*
G04 Text: K3 *
G54D16*X4600Y4650D02*Y4250D01*
Y4450D02*X4800Y4650D01*
X4600Y4450D02*X4800Y4250D01*
X4920Y4600D02*X4970Y4650D01*
X5070D01*
X5120Y4600D01*
Y4300D01*
X5070Y4250D02*X5120Y4300D01*
X4970Y4250D02*X5070D01*
X4920Y4300D02*X4970Y4250D01*
Y4450D02*X5120D01*
G04 Text: MP *
X10300Y1850D02*Y1450D01*
Y1850D02*X10450Y1700D01*
X10600Y1850D01*
Y1450D01*
X10770Y1850D02*Y1450D01*
X10720Y1850D02*X10920D01*
X10970Y1800D01*
Y1700D01*
X10920Y1650D02*X10970Y1700D01*
X10770Y1650D02*X10920D01*
G04 Text: 6/2004 *
X9750Y2450D02*X9800Y2400D01*
X9650Y2450D02*X9750D01*
X9600Y2400D02*X9650Y2450D01*
X9600Y2400D02*Y2100D01*
X9650Y2050D01*
X9750Y2250D02*X9800Y2200D01*
X9600Y2250D02*X9750D01*
X9650Y2050D02*X9750D01*
X9800Y2100D01*
Y2200D02*Y2100D01*
X9920D02*X10220Y2400D01*
X10340D02*X10390Y2450D01*
X10540D01*
X10590Y2400D01*
Y2300D01*
X10340Y2050D02*X10590Y2300D01*
X10340Y2050D02*X10590D01*
X10710Y2100D02*X10760Y2050D01*
X10710Y2400D02*Y2100D01*
Y2400D02*X10760Y2450D01*
X10860D01*
X10910Y2400D01*
Y2100D01*
X10860Y2050D02*X10910Y2100D01*
X10760Y2050D02*X10860D01*
X10710Y2150D02*X10910Y2350D01*
X11030Y2100D02*X11080Y2050D01*
X11030Y2400D02*Y2100D01*
Y2400D02*X11080Y2450D01*
X11180D01*
X11230Y2400D01*
Y2100D01*
X11180Y2050D02*X11230Y2100D01*
X11080Y2050D02*X11180D01*
X11030Y2150D02*X11230Y2350D01*
X11350Y2250D02*X11550Y2450D01*
X11350Y2250D02*X11600D01*
X11550Y2450D02*Y2050D01*
G04 Text: /podex *
X1800Y300D02*X2100Y600D01*
X2270Y400D02*Y100D01*
X2220Y450D02*X2270Y400D01*
X2320Y450D01*
X2420D01*
X2470Y400D01*
Y300D01*
X2420Y250D02*X2470Y300D01*
X2320Y250D02*X2420D01*
X2270Y300D02*X2320Y250D01*
X2590Y400D02*Y300D01*
Y400D02*X2640Y450D01*
X2740D01*
X2790Y400D01*
Y300D01*
X2740Y250D02*X2790Y300D01*
X2640Y250D02*X2740D01*
X2590Y300D02*X2640Y250D01*
X3110Y650D02*Y250D01*
X3060D02*X3110Y300D01*
X2960Y250D02*X3060D01*
X2910Y300D02*X2960Y250D01*
X2910Y400D02*Y300D01*
Y400D02*X2960Y450D01*
X3060D01*
X3110Y400D01*
X3280Y250D02*X3430D01*
X3230Y300D02*X3280Y250D01*
X3230Y400D02*Y300D01*
Y400D02*X3280Y450D01*
X3380D01*
X3430Y400D01*
X3230Y350D02*X3430D01*
Y400D02*Y350D01*
X3550Y450D02*X3750Y250D01*
X3550D02*X3750Y450D01*
G04 Text: duch.cz *
X2000Y1150D02*Y750D01*
X1950D02*X2000Y800D01*
X1850Y750D02*X1950D01*
X1800Y800D02*X1850Y750D01*
X1800Y900D02*Y800D01*
Y900D02*X1850Y950D01*
X1950D01*
X2000Y900D01*
X2120Y950D02*Y800D01*
X2170Y750D01*
X2270D01*
X2320Y800D01*
Y950D02*Y800D01*
X2490Y950D02*X2640D01*
X2440Y900D02*X2490Y950D01*
X2440Y900D02*Y800D01*
X2490Y750D01*
X2640D01*
X2760Y1150D02*Y750D01*
Y900D02*X2810Y950D01*
X2910D01*
X2960Y900D01*
Y750D01*
X3080D02*X3130D01*
X3300Y950D02*X3450D01*
X3250Y900D02*X3300Y950D01*
X3250Y900D02*Y800D01*
X3300Y750D01*
X3450D01*
X3570Y950D02*X3770D01*
X3570Y750D02*X3770Y950D01*
X3570Y750D02*X3770D01*
G04 Text: HC12 BDM *
X1700Y1650D02*Y1250D01*
X1950Y1650D02*Y1250D01*
X1700Y1450D02*X1950D01*
X2120Y1250D02*X2270D01*
X2070Y1300D02*X2120Y1250D01*
X2070Y1600D02*Y1300D01*
Y1600D02*X2120Y1650D01*
X2270D01*
X2440Y1250D02*X2540D01*
X2490Y1650D02*Y1250D01*
X2390Y1550D02*X2490Y1650D01*
X2660Y1600D02*X2710Y1650D01*
X2860D01*
X2910Y1600D01*
Y1500D01*
X2660Y1250D02*X2910Y1500D01*
X2660Y1250D02*X2910D01*
X3210D02*X3410D01*
X3460Y1300D01*
Y1400D02*Y1300D01*
X3410Y1450D02*X3460Y1400D01*
X3260Y1450D02*X3410D01*
X3260Y1650D02*Y1250D01*
X3210Y1650D02*X3410D01*
X3460Y1600D01*
Y1500D01*
X3410Y1450D02*X3460Y1500D01*
X3630Y1650D02*Y1250D01*
X3780Y1650D02*X3830Y1600D01*
Y1300D01*
X3780Y1250D02*X3830Y1300D01*
X3580Y1250D02*X3780D01*
X3580Y1650D02*X3780D01*
X3950D02*Y1250D01*
Y1650D02*X4100Y1500D01*
X4250Y1650D01*
Y1250D01*
G04 Text: X1 *
X4950Y2050D02*Y2000D01*
X5200Y1750D01*
Y1650D01*
X4950Y1750D02*Y1650D01*
Y1750D02*X5200Y2000D01*
Y2050D02*Y2000D01*
X5370Y1650D02*X5470D01*
X5420Y2050D02*Y1650D01*
X5320Y1950D02*X5420Y2050D01*
%LNCUTS*%
%LPC*%
G54D12*X5200Y800D03*
Y2800D03*
X6750Y4100D03*
X7750D03*
X6750Y1800D03*
X7750D03*
X6750Y2950D03*
X13350Y790D02*X14100D01*
X400D02*X1150D01*
G54D19*X8610Y5200D02*X8890D01*
G54D22*X8610Y4700D02*X8890D01*
X8610Y4200D02*X8890D01*
X8610Y3700D02*X8890D01*
X8610Y3200D02*X8890D01*
X8610Y2700D02*X8890D01*
X8610Y2200D02*X8890D01*
X8610Y1700D02*X8890D01*
X8610Y1200D02*X8890D01*
X8610Y700D02*X8890D01*
X12400D02*X12680D01*
X12400Y1200D02*X12680D01*
X12400Y1700D02*X12680D01*
X12400Y2200D02*X12680D01*
X12400Y2700D02*X12680D01*
X12400Y3200D02*X12680D01*
X12400Y3700D02*X12680D01*
X12400Y4200D02*X12680D01*
X12400Y4700D02*X12680D01*
X12400Y5200D02*X12680D01*
G54D25*X5830Y2580D02*X6170D01*
X5830Y3220D02*X6170D01*
G54D19*X1810Y5600D02*X2090D01*
G54D22*X1810Y5100D02*X2090D01*
X1810Y4600D02*X2090D01*
X1810Y4100D02*X2090D01*
X1810Y3600D02*X2090D01*
X1810Y3100D02*X2090D01*
X1810Y2600D02*X2090D01*
X1810Y2100D02*X2090D01*
X3850D02*X4130D01*
X3850Y2600D02*X4130D01*
X3850Y3100D02*X4130D01*
X3850Y3600D02*X4130D01*
X3850Y4100D02*X4130D01*
X3850Y4600D02*X4130D01*
X3850Y5100D02*X4130D01*
X3850Y5600D02*X4130D01*
G54D28*X11480Y2180D02*Y1820D01*
X10520Y2180D02*Y1820D01*
G54D25*X8630Y4270D02*Y3930D01*
G54D28*X4130Y980D02*Y620D01*
X3170Y980D02*Y620D01*
X3970Y3680D02*X4330D01*
X3970Y2720D02*X4330D01*
X2020Y420D02*X2380D01*
X2020Y1380D02*X2380D01*
G54D25*X4830Y1720D02*Y1380D01*
X5470Y1720D02*Y1380D01*
G54D28*X3520Y5480D02*X3880D01*
X3520Y4520D02*X3880D01*
G54D25*X8630Y1970D02*Y1630D01*
M02*
